<?xml version="1.0" standalone="no"?>
<!DOCTYPE svg PUBLIC "-//W3C//DTD SVG 20010904//EN"
 "http://www.w3.org/TR/2001/REC-SVG-20010904/DTD/svg10.dtd">
<svg version="1.0" xmlns="http://www.w3.org/2000/svg"
 width="700.000000pt" height="700.000000pt" viewBox="0 0 700.000000 700.000000"
 preserveAspectRatio="xMidYMid meet">
<metadata>
Created by potrace 1.14, written by Peter Selinger 2001-2017
</metadata>
<g transform="translate(0.000000,700.000000) scale(0.100000,-0.100000)"
fill="#000000" stroke="none">
<path d="M3349 5290 c-645 -57 -1216 -459 -1484 -1045 -311 -683 -163 -1491
371 -2017 182 -179 353 -294 577 -387 676 -281 1448 -123 1964 400 697 707
691 1831 -13 2532 -372 371 -897 562 -1415 517z m-313 -452 c-66 -157 -78
-189 -75 -192 10 -10 532 -296 540 -296 7 0 529 287 538 296 2 2 -16 52 -42
111 -25 60 -42 109 -38 111 5 1 31 -6 58 -17 247 -97 462 -256 623 -460 l34
-44 -34 6 c-19 3 -76 9 -126 13 l-91 6 -57 -293 c-31 -162 -59 -299 -61 -306
-4 -11 437 -428 454 -428 5 0 46 32 91 70 45 39 86 71 90 73 23 8 -15 -262
-55 -403 -42 -145 -194 -442 -215 -419 -4 5 -18 57 -30 117 -15 68 -28 107
-36 107 -7 0 -140 -16 -296 -35 -156 -19 -289 -35 -296 -35 -13 0 -29 -31
-195 -387 l-85 -182 106 -62 c73 -43 101 -64 91 -69 -32 -17 -201 -50 -312
-60 -160 -15 -339 2 -515 49 -23 7 -42 13 -42 15 0 2 47 32 104 65 l104 62
-85 182 c-164 351 -182 387 -192 387 -6 0 -139 16 -295 35 -157 19 -291 35
-299 35 -9 0 -21 -36 -37 -107 -12 -60 -26 -112 -30 -116 -21 -24 -173 272
-215 418 -41 141 -78 411 -56 403 5 -1 46 -34 91 -73 45 -38 86 -70 91 -70 5
0 110 93 232 207 l224 208 -59 302 c-32 167 -58 305 -58 307 0 4 -158 -7 -214
-15 l-39 -6 49 62 c137 175 359 338 594 436 77 32 83 31 66 -8z"/>
<path d="M3213 3862 c-150 -108 -272 -204 -272 -212 0 -8 46 -157 103 -330
l103 -315 354 0 353 0 103 315 c56 173 103 322 102 330 0 17 -539 410 -561
409 -7 0 -135 -89 -285 -197z"/>
</g>
</svg>
