<?xml version="1.0" encoding="utf-8"?>
<!-- Generator: Adobe Illustrator 27.3.1, SVG Export Plug-In . SVG Version: 6.00 Build 0)  -->
<svg version="1.1" id="Layer_1" xmlns="http://www.w3.org/2000/svg" xmlns:xlink="http://www.w3.org/1999/xlink" x="0px" y="0px"
	 viewBox="0 0 354 170" style="enable-background:new 0 0 354 170;" xml:space="preserve">
<style type="text/css">
	.st0{fill:#21242C;}
</style>
<path class="st0" d="M348,0H6C2.7,0,0,2.7,0,6v30v98v30c0,3.3,2.7,6,6,6h169h4h169c3.3,0,6-2.7,6-6v-30V36V6C354,2.7,351.3,0,348,0z
	 M175,117.9c-17.3-1-31-15.4-31-32.9s13.7-31.9,31-32.9V117.9z M179,52.1c17.3,1,31,15.4,31,32.9s-13.7,31.9-31,32.9V52.1z M4,40h38
	c1.1,0,2,0.9,2,2v86c0,1.1-0.9,2-2,2H4V40z M6,166c-1.1,0-2-0.9-2-2v-30h38c3.3,0,6-2.7,6-6V42c0-3.3-2.7-6-6-6H4V6c0-1.1,0.9-2,2-2
	h169v44.1c-19.5,1-35,17.2-35,36.9c0,19.7,15.5,35.9,35,36.9V166H6z M350,130h-38c-1.1,0-2-0.9-2-2V42c0-1.1,0.9-2,2-2h38V130z
	 M312,36c-3.3,0-6,2.7-6,6v86c0,3.3,2.7,6,6,6h38v30c0,1.1-0.9,2-2,2H179v-44.1c19.5-1,35-17.2,35-36.9c0-19.7-15.5-35.9-35-36.9V4
	h169c1.1,0,2,0.9,2,2v30H312z"/>
</svg>
