<?xml version="1.0" encoding="utf-8"?>
<!-- Generator: Adobe Illustrator 27.3.1, SVG Export Plug-In . SVG Version: 6.00 Build 0)  -->
<svg version="1.1" id="Layer_1" xmlns="http://www.w3.org/2000/svg" xmlns:xlink="http://www.w3.org/1999/xlink" x="0px" y="0px"
	 viewBox="0 0 210.7 111.2" style="enable-background:new 0 0 210.7 111.2;" xml:space="preserve">
<style type="text/css">
	.st0{fill:#0FFFC5;}
	.st1{fill:#5800FF;}
	.st2{fill:#EBFF0B;}
	.st3{fill:#FF5C00;}
	.st4{fill:#FA4969;}
	.st5{fill:#7C2443;}
</style>
<path class="st0" d="M63.6,44.4l71.5-8.8c2.2-0.3,4.2,1.3,4.5,3.5l2.7,21.8c0.3,2.2-1.3,4.2-3.5,4.5l-71.5,8.8
	c-2.2,0.3-4.2-1.3-4.5-3.5l-2.7-21.8C59.8,46.7,61.4,44.7,63.6,44.4z"/>
<path class="st1" d="M91,49.2l-1.7,15.2l-4.4,0.5l-3.6-9.6l-1.2,10.2l-4.4,0.5l-5.3-14.3l3.9-0.5l3.2,10.4l1.3-11l3.9-0.5l3.9,10.4
	l0.6-10.9L91,49.2z M102.5,47.8l0.3,2.8l-6,0.7l0.4,3.2l4.7-0.6l0.3,2.7l-4.7,0.6l0.7,6l-3.6,0.4L92.8,49L102.5,47.8z M107.7,47.2
	l1,8.5c0.1,1,0.4,1.7,0.9,2.2c0.5,0.5,1.2,0.6,2,0.5c0.8-0.1,1.4-0.4,1.8-1c0.4-0.6,0.5-1.3,0.4-2.3l-1-8.5l3.6-0.4l1,8.5
	c0.2,1.4,0,2.6-0.4,3.6c-0.4,1-1.1,1.8-2,2.4c-0.9,0.6-1.9,1-3.1,1.1s-2.3,0-3.2-0.3c-1-0.4-1.8-1-2.4-1.9c-0.6-0.9-1-2-1.2-3.4
	l-1-8.5L107.7,47.2z M129.4,44.5l0.3,2.8l-4,0.5l1.5,11.9l-3.6,0.4l-1.5-11.9l-4,0.5l-0.3-2.8L129.4,44.5z"/>
<path class="st2" d="M131,64l50.2,2.6c2.2,0.1,3.9,2,3.8,4.2l-1.2,22c-0.1,2.2-2,3.9-4.2,3.8l-50.2-2.6c-2.2-0.1-3.9-2-3.8-4.2
	l1.2-22C126.9,65.5,128.8,63.8,131,64z"/>
<path class="st3" d="M154.3,73.4L150,88l-4.4-0.2l-1.9-10l-2.9,9.8l-4.4-0.2l-2.8-15l3.9,0.2l1.3,10.8l3.2-10.6l3.9,0.2l2,10.9
	l2.5-10.6L154.3,73.4z M166.3,84.7c0,0.8-0.3,1.5-0.7,2.1c-0.4,0.6-1,1.1-1.8,1.5c-0.8,0.4-1.7,0.5-2.8,0.4c-1.7-0.1-3-0.6-4-1.4
	s-1.6-2-1.6-3.5l3.8,0.2c0,0.6,0.2,1,0.5,1.4c0.3,0.3,0.8,0.5,1.3,0.6c0.5,0,0.8-0.1,1.1-0.3c0.3-0.2,0.4-0.6,0.5-1
	c0-0.4-0.1-0.7-0.3-1c-0.2-0.3-0.5-0.5-0.9-0.7c-0.4-0.2-0.8-0.4-1.5-0.7c-0.9-0.4-1.7-0.7-2.3-1c-0.6-0.3-1.1-0.8-1.5-1.4
	c-0.4-0.6-0.6-1.4-0.5-2.4c0-0.9,0.3-1.6,0.8-2.3c0.5-0.6,1.1-1.1,1.9-1.4c0.8-0.3,1.7-0.4,2.8-0.4c1.6,0.1,2.9,0.5,3.9,1.4
	c0.9,0.8,1.4,1.9,1.5,3.3l-3.9-0.2c0-0.5-0.2-0.9-0.5-1.2c-0.3-0.3-0.6-0.5-1.1-0.5c-0.4,0-0.8,0.1-1,0.3c-0.3,0.2-0.4,0.5-0.4,1
	c0,0.3,0.1,0.7,0.3,0.9c0.2,0.3,0.5,0.5,0.8,0.6c0.3,0.2,0.8,0.4,1.5,0.7c0.9,0.4,1.7,0.7,2.3,1.1c0.6,0.3,1.1,0.8,1.5,1.4
	C166.2,82.9,166.3,83.7,166.3,84.7z M171.8,86.4l4.8,0.3l-0.1,2.7l-8.4-0.4l0.8-14.8l3.6,0.2L171.8,86.4z"/>
<path class="st4" d="M39.9,66.1l68.3,15.8c2.2,0.5,3.5,2.6,3,4.8l-4.9,21.4c-0.5,2.2-2.6,3.5-4.8,3L33.1,95.3
	c-2.2-0.5-3.5-2.6-3-4.8l4.9-21.4C35.6,66.9,37.7,65.6,39.9,66.1z"/>
<path class="st5" d="M60.2,79l-6.8,13.7l-4.3-1L49,81.4l-4.6,9.1l-4.3-1L40,74.3l3.8,0.9l-0.6,10.9l5-9.9l3.8,0.9l0.1,11.1l4.3-10
	L60.2,79z M69,80.8c1.4,0.3,2.5,0.9,3.5,1.8c1,0.9,1.7,2,2,3.2c0.4,1.3,0.4,2.6,0.1,4c-0.3,1.4-0.9,2.6-1.9,3.6
	c-0.9,1-2,1.7-3.3,2.1c-1.2,0.4-2.5,0.4-3.9,0.1c-1.4-0.3-2.5-0.9-3.5-1.8c-1-0.9-1.6-2-2-3.3c-0.4-1.3-0.4-2.6-0.1-4
	c0.3-1.4,0.9-2.6,1.8-3.6c0.9-1,2-1.7,3.2-2C66.3,80.5,67.7,80.5,69,80.8z M68.3,84c-1.1-0.3-2.1-0.1-3,0.5
	c-0.8,0.6-1.4,1.5-1.7,2.8c-0.3,1.3-0.2,2.4,0.3,3.3c0.5,0.9,1.3,1.5,2.5,1.8c1.1,0.3,2.1,0.1,3-0.5c0.9-0.6,1.4-1.5,1.7-2.8
	c0.3-1.3,0.2-2.4-0.3-3.3C70.2,84.9,69.4,84.3,68.3,84z M86.2,95.9c-0.2,0.8-0.5,1.4-1.1,2c-0.5,0.6-1.2,0.9-2.1,1.1
	c-0.8,0.2-1.8,0.2-2.9-0.1c-1.6-0.4-2.9-1.1-3.7-2.1c-0.9-1-1.2-2.3-1-3.7l3.7,0.9c-0.1,0.6,0,1,0.3,1.4c0.3,0.4,0.7,0.6,1.2,0.8
	c0.5,0.1,0.8,0.1,1.1-0.1c0.3-0.2,0.5-0.5,0.6-0.9c0.1-0.4,0-0.7-0.2-1c-0.2-0.3-0.4-0.6-0.7-0.8c-0.3-0.2-0.8-0.6-1.3-0.9
	c-0.8-0.5-1.5-1-2-1.4c-0.5-0.4-0.9-1-1.2-1.7c-0.3-0.7-0.3-1.5-0.1-2.4c0.2-0.9,0.6-1.6,1.2-2.1c0.6-0.5,1.3-0.9,2.1-1
	C81,83.7,82,83.8,83,84c1.6,0.4,2.8,1,3.6,2c0.8,1,1.1,2.2,0.9,3.5l-3.8-0.9c0-0.5,0-0.9-0.3-1.2c-0.2-0.3-0.5-0.6-1-0.7
	c-0.4-0.1-0.8-0.1-1.1,0.1c-0.3,0.2-0.5,0.5-0.6,0.9c-0.1,0.3,0,0.7,0.1,1c0.2,0.3,0.4,0.5,0.7,0.8c0.3,0.2,0.8,0.5,1.3,0.9
	c0.9,0.5,1.5,1,2.1,1.5c0.5,0.4,0.9,1,1.2,1.7C86.4,94.2,86.4,95,86.2,95.9z M97.5,87.4c1.4,0.3,2.5,0.9,3.5,1.8c1,0.9,1.7,2,2,3.2
	c0.4,1.3,0.4,2.6,0.1,4c-0.3,1.4-0.9,2.6-1.9,3.6c-0.9,1-2,1.7-3.3,2.1c-1.2,0.4-2.5,0.4-3.9,0.1c-1.4-0.3-2.5-0.9-3.5-1.8
	c-1-0.9-1.6-2-2-3.3c-0.4-1.3-0.4-2.6-0.1-4c0.3-1.4,0.9-2.6,1.8-3.6c0.9-1,2-1.7,3.2-2C94.8,87.1,96.1,87,97.5,87.4z M96.7,90.6
	c-1.1-0.3-2.1-0.1-3,0.5c-0.8,0.6-1.4,1.5-1.7,2.8c-0.3,1.3-0.2,2.4,0.3,3.3c0.5,0.9,1.3,1.5,2.5,1.8c1.1,0.3,2.1,0.1,3-0.5
	c0.9-0.6,1.4-1.5,1.7-2.8c0.3-1.3,0.2-2.4-0.3-3.3C98.7,91.5,97.9,90.9,96.7,90.6z"/>
<path class="st3" d="M2.2,44.3L84.4,2.4c2-1,4.4-0.2,5.4,1.7l10,19.6c1,2,0.2,4.4-1.7,5.4L15.8,71c-2,1-4.4,0.2-5.4-1.7l-10-19.6
	C-0.6,47.7,0.2,45.3,2.2,44.3z"/>
<path class="st2" d="M27.6,40.3l3.6,14.8l-4,2l-6.6-7.8l2.4,9.9l-4,2L9.1,49.7l3.5-1.8l6.6,8.7l-2.6-10.8l3.5-1.8l7.2,8.4L24.1,42
	L27.6,40.3z M35.4,36c1.2-0.6,2.5-0.9,3.8-0.8c1.3,0.1,2.5,0.4,3.6,1.2c1.1,0.7,2,1.7,2.7,3s1,2.6,0.9,4c-0.1,1.3-0.5,2.6-1.2,3.7
	c-0.7,1.1-1.7,1.9-2.9,2.6c-1.2,0.6-2.5,0.9-3.8,0.9c-1.3-0.1-2.5-0.5-3.7-1.2c-1.1-0.7-2-1.8-2.7-3.1c-0.7-1.3-1-2.6-0.9-3.9
	c0.1-1.3,0.5-2.6,1.2-3.6C33.2,37.5,34.2,36.6,35.4,36z M36.9,39c-1,0.5-1.7,1.3-2,2.3c-0.3,1-0.1,2.1,0.5,3.2
	c0.6,1.2,1.4,1.9,2.3,2.3c1,0.4,2,0.3,3-0.2c1-0.5,1.7-1.3,2-2.3c0.3-1,0.1-2.1-0.5-3.2c-0.6-1.2-1.4-1.9-2.3-2.3
	C39,38.3,38,38.4,36.9,39z M58.9,24.4l6.7,13.1l-3.2,1.6l-4.2-8.2l1.3,9.7L56.8,42l-7.1-6.8l4.2,8.2l-3.2,1.6L44,32l3.9-2l8.2,7.3
	L55,26.4L58.9,24.4z M65.6,24.1l1.4,2.8l4.5-2.3l1.2,2.4l-4.5,2.3l1.5,2.9l5-2.6l1.3,2.6l-8.2,4.2l-6.7-13.2l8.2-4.2l1.3,2.5
	L65.6,24.1z M89.6,25.3l-3.2,1.6l-9.5-5.4l4.1,8.1l-3.2,1.6L71.1,18l3.2-1.6l9.5,5.5l-4.2-8.2l3.2-1.6L89.6,25.3z"/>
<path class="st1" d="M103,0.1l104.6,24.1c2.2,0.5,3.5,2.6,3,4.8l-4.9,21.4c-0.5,2.2-2.6,3.5-4.8,3L96.3,29.3c-2.2-0.5-3.5-2.6-3-4.8
	l4.9-21.4C98.7,0.9,100.9-0.4,103,0.1z"/>
<path class="st0" d="M111.8,10.6l-0.6,2.8l-5.9-1.4l-0.7,3.2l4.6,1.1l-0.6,2.7l-4.6-1.1l-1.4,5.9L99,22.9l3.3-14.5L111.8,10.6z
	 M120.5,12.3c1.4,0.3,2.5,0.9,3.5,1.8c1,0.9,1.7,2,2,3.2c0.4,1.3,0.4,2.6,0.1,4c-0.3,1.4-0.9,2.6-1.9,3.6c-0.9,1-2,1.7-3.3,2.1
	c-1.2,0.4-2.6,0.4-3.9,0.1c-1.4-0.3-2.5-0.9-3.5-1.8c-1-0.9-1.6-2-2-3.3c-0.4-1.3-0.4-2.6-0.1-4c0.3-1.4,0.9-2.6,1.8-3.6
	c0.9-1,2-1.7,3.2-2C117.8,12.1,119.1,12,120.5,12.3z M119.7,15.6c-1.1-0.3-2.1-0.1-3,0.5c-0.8,0.6-1.4,1.5-1.7,2.8
	c-0.3,1.3-0.2,2.4,0.3,3.3c0.5,0.9,1.3,1.5,2.5,1.8c1.1,0.3,2.1,0.1,3-0.5c0.9-0.6,1.4-1.5,1.7-2.8c0.3-1.3,0.2-2.4-0.3-3.3
	C121.7,16.5,120.9,15.9,119.7,15.6z M136.6,16.1c1.4,0.3,2.5,0.9,3.5,1.8c1,0.9,1.7,2,2,3.2c0.4,1.3,0.4,2.6,0.1,4
	c-0.3,1.4-0.9,2.6-1.9,3.6c-0.9,1-2,1.7-3.3,2.1c-1.2,0.4-2.6,0.4-3.9,0.1c-1.3-0.3-2.5-0.9-3.5-1.8c-1-0.9-1.6-2-2-3.3
	c-0.4-1.3-0.4-2.6-0.1-4c0.3-1.4,0.9-2.6,1.8-3.6c0.9-1,2-1.7,3.2-2C134,15.8,135.3,15.8,136.6,16.1z M135.9,19.3
	c-1.1-0.3-2.1-0.1-3,0.5c-0.8,0.6-1.4,1.5-1.7,2.8c-0.3,1.3-0.2,2.4,0.3,3.3c0.5,0.9,1.3,1.5,2.5,1.8c1.1,0.3,2.1,0.1,3-0.5
	c0.9-0.6,1.4-1.5,1.7-2.8c0.3-1.3,0.2-2.4-0.3-3.3C137.8,20.2,137,19.6,135.9,19.3z M156.2,20.8l-0.6,2.8l-3.9-0.9L149,34.4
	l-3.5-0.8l2.7-11.7l-3.9-0.9l0.6-2.8L156.2,20.8z M164.8,30.2c0.8,0.4,1.4,1,1.8,1.7c0.4,0.8,0.5,1.6,0.3,2.4
	c-0.3,1.2-0.9,2.1-1.9,2.6c-1,0.5-2.2,0.6-3.8,0.2l-6.7-1.6l3.3-14.5l6.6,1.5c1.5,0.3,2.5,0.9,3.2,1.8c0.7,0.8,0.8,1.8,0.6,3
	c-0.2,0.9-0.6,1.5-1.2,2C166.3,30,165.6,30.2,164.8,30.2z M159.9,27.9l2.3,0.5c1.2,0.3,1.9-0.1,2.2-1.1c0.2-1-0.3-1.7-1.5-2
	l-2.3-0.5L159.9,27.9z M161,34.2c1.3,0.3,2.1-0.1,2.3-1.1c0.1-0.5,0-1-0.2-1.3c-0.3-0.4-0.7-0.6-1.3-0.8l-2.5-0.6l-0.8,3.3L161,34.2
	z M177.3,38.2l-5.4-1.3l-1.5,2.4l-3.7-0.9l8.6-13.1l4,0.9l2,15.6l-3.7-0.9L177.3,38.2z M177,35.3l-0.6-5.7l-3,4.9L177,35.3z
	 M186.8,40.3l4.7,1.1l-0.6,2.7l-8.2-1.9l3.3-14.5l3.5,0.8L186.8,40.3z M196.6,42.6l4.7,1.1l-0.6,2.7l-8.2-1.9l3.3-14.5l3.5,0.8
	L196.6,42.6z"/>
</svg>
